<svg width="613" height="537" viewBox="0 0 613 537" fill="none" xmlns="http://www.w3.org/2000/svg">
<g clip-path="url(#clip0_1_2)">
<path d="M306.5 73.2885L613 227.871L306.5 382.454L0 227.871L306.5 73.2885Z" fill="#EDE7F6"/>
<rect x="151.919" width="309.166" height="461.083" fill="#673AB7"/>
<path fill-rule="evenodd" clip-rule="evenodd" d="M0.00450791 227.87H0V227.872V537.035H613V227.872V227.87H612.995L613 227.872L306.5 382.455L0 227.872L0.00450791 227.87Z" fill="#D1C4E9"/>
<path d="M271.712 246.37V315.95H248.275V138.216H313.826C333.276 138.216 348.494 143.18 359.481 153.108C370.548 163.037 376.082 176.18 376.082 192.537C376.082 209.79 370.67 223.095 359.847 232.454C349.105 241.731 333.683 246.37 313.582 246.37H271.712ZM271.712 227.205H313.826C326.359 227.205 335.962 224.275 342.635 218.416C349.308 212.475 352.645 203.93 352.645 192.781C352.645 182.202 349.308 173.738 342.635 167.391C335.962 161.043 326.806 157.747 315.169 157.503H271.712V227.205Z" fill="white"/>
</g>
<defs>
<clipPath id="clip0_1_2">
<rect width="613" height="537" fill="white"/>
</clipPath>
</defs>
</svg>
