<svg width="613" height="537" viewBox="0 0 613 537" fill="none" xmlns="http://www.w3.org/2000/svg">
<g clip-path="url(#clip0_1_2)">
<path d="M306.5 73.2885L613 227.871L306.5 382.454L0 227.871L306.5 73.2885Z" fill="#7E57C2"/>
<rect x="151.919" width="309.166" height="461.083" fill="#D1C4E9"/>
<path fill-rule="evenodd" clip-rule="evenodd" d="M0.00450791 227.87H0V227.872V537.035H613V227.872V227.87H612.995L613 227.872L306.5 382.455L0 227.872L0.00450791 227.87Z" fill="#673AB7"/>
<path d="M268.697 229.95H315.197C328.697 230.117 338.531 227.367 344.697 221.7C351.031 216.033 354.197 207.867 354.197 197.2C354.197 186.533 351.031 178.45 344.697 172.95C338.531 167.283 328.697 164.45 315.197 164.45H268.697V229.95ZM244.947 144.45H323.197C341.197 144.45 354.781 149.117 363.947 158.45C373.281 167.617 377.947 180.533 377.947 197.2C377.947 213.867 373.281 226.867 363.947 236.2C354.781 245.533 341.197 250.117 323.197 249.95H268.697V322.95H244.947V144.45Z" fill="white"/>
</g>
<defs>
<clipPath id="clip0_1_2">
<rect width="613" height="537" fill="white"/>
</clipPath>
</defs>
</svg>
