<svg width="1576" height="494" viewBox="0 0 1576 494" fill="none" xmlns="http://www.w3.org/2000/svg">
<g clip-path="url(#clip0_2_11)">
<path d="M256.208 69.8759L548.417 217.251L256.208 364.625L-36 217.251L256.208 69.8759Z" fill="#7E57C2"/>
<rect x="108.833" width="294.749" height="439.583" fill="#D1C4E9"/>
<path fill-rule="evenodd" clip-rule="evenodd" d="M-36 217.251V512H548.417V217.251L256.208 364.625L-36 217.251Z" fill="#673AB7"/>
<path d="M263.532 235.715H216.047V216.55H263.532C272.728 216.55 280.175 215.085 285.871 212.155C291.568 209.225 295.718 205.156 298.322 199.948C301.008 194.74 302.351 188.799 302.351 182.126C302.351 176.022 301.008 170.285 298.322 164.914C295.718 159.543 291.568 155.23 285.871 151.974C280.175 148.638 272.728 146.97 263.532 146.97H221.54V305.417H197.981V127.682H263.532C276.96 127.682 288.313 130.002 297.59 134.641C306.867 139.279 313.907 145.708 318.708 153.928C323.51 162.066 325.91 171.384 325.91 181.882C325.91 193.275 323.51 203 318.708 211.057C313.907 219.113 306.867 225.257 297.59 229.489C288.313 233.64 276.96 235.715 263.532 235.715Z" fill="white"/>
</g>
<path d="M643.359 263.145H606.738V242.051H643.359C649.349 242.051 654.199 241.074 657.91 239.121C661.686 237.103 664.453 234.368 666.211 230.918C667.969 227.402 668.848 223.398 668.848 218.906C668.848 214.544 667.969 210.475 666.211 206.699C664.453 202.923 661.686 199.863 657.91 197.52C654.199 195.176 649.349 194.004 643.359 194.004H615.527V315H588.672V172.812H643.359C654.427 172.812 663.867 174.798 671.68 178.77C679.557 182.676 685.547 188.112 689.648 195.078C693.815 201.979 695.898 209.857 695.898 218.711C695.898 227.891 693.815 235.801 689.648 242.441C685.547 249.082 679.557 254.193 671.68 257.773C663.867 261.354 654.427 263.145 643.359 263.145ZM772.07 292.539V243.809C772.07 240.228 771.452 237.135 770.215 234.531C768.978 231.927 767.09 229.909 764.551 228.477C762.012 227.044 758.789 226.328 754.883 226.328C751.432 226.328 748.405 226.914 745.801 228.086C743.262 229.258 741.309 230.918 739.941 233.066C738.574 235.15 737.891 237.559 737.891 240.293H712.012C712.012 235.931 713.053 231.797 715.137 227.891C717.22 223.919 720.182 220.404 724.023 217.344C727.93 214.219 732.585 211.777 737.988 210.02C743.457 208.262 749.577 207.383 756.348 207.383C764.355 207.383 771.484 208.75 777.734 211.484C784.049 214.154 788.997 218.19 792.578 223.594C796.224 228.997 798.047 235.801 798.047 244.004V290.098C798.047 295.371 798.372 299.896 799.023 303.672C799.74 307.383 800.781 310.605 802.148 313.34V315H775.879C774.642 312.331 773.698 308.945 773.047 304.844C772.396 300.677 772.07 296.576 772.07 292.539ZM775.684 250.645L775.879 265.977H759.57C755.534 265.977 751.986 266.4 748.926 267.246C745.866 268.027 743.359 269.199 741.406 270.762C739.453 272.259 737.988 274.082 737.012 276.23C736.035 278.314 735.547 280.69 735.547 283.359C735.547 285.964 736.133 288.307 737.305 290.391C738.542 292.474 740.299 294.134 742.578 295.371C744.922 296.543 747.656 297.129 750.781 297.129C755.339 297.129 759.31 296.217 762.695 294.395C766.081 292.507 768.717 290.228 770.605 287.559C772.493 284.889 773.503 282.35 773.633 279.941L781.055 291.074C780.143 293.743 778.776 296.576 776.953 299.57C775.13 302.565 772.786 305.365 769.922 307.969C767.057 310.573 763.607 312.721 759.57 314.414C755.534 316.107 750.846 316.953 745.508 316.953C738.672 316.953 732.552 315.586 727.148 312.852C721.745 310.117 717.48 306.374 714.355 301.621C711.23 296.868 709.668 291.465 709.668 285.41C709.668 279.811 710.71 274.863 712.793 270.566C714.876 266.27 717.969 262.656 722.07 259.727C726.172 256.732 731.25 254.486 737.305 252.988C743.424 251.426 750.423 250.645 758.301 250.645H775.684ZM850.684 303.281L879.004 209.336H906.641L864.258 331.016C863.281 333.62 862.012 336.452 860.449 339.512C858.952 342.572 856.934 345.469 854.395 348.203C851.855 351.003 848.665 353.281 844.824 355.039C841.048 356.797 836.458 357.676 831.055 357.676C828.711 357.676 826.628 357.513 824.805 357.188C822.982 356.862 821.061 356.439 819.043 355.918V336.582C819.694 336.647 820.443 336.68 821.289 336.68C822.201 336.745 822.982 336.777 823.633 336.777C827.409 336.777 830.534 336.322 833.008 335.41C835.482 334.564 837.467 333.164 838.965 331.211C840.527 329.323 841.829 326.849 842.871 323.789L850.684 303.281ZM836.719 209.336L860.645 287.168L864.844 314.414L847.07 317.637L808.887 209.336H836.719ZM1004.3 268.223H1031.15C1030.44 277.728 1027.8 286.159 1023.24 293.516C1018.68 300.807 1012.34 306.536 1004.2 310.703C996.061 314.87 986.198 316.953 974.609 316.953C965.69 316.953 957.65 315.391 950.488 312.266C943.392 309.076 937.305 304.551 932.227 298.691C927.214 292.767 923.372 285.671 920.703 277.402C918.034 269.069 916.699 259.727 916.699 249.375V238.535C916.699 228.184 918.066 218.841 920.801 210.508C923.535 202.174 927.441 195.078 932.52 189.219C937.663 183.294 943.815 178.737 950.977 175.547C958.203 172.357 966.276 170.762 975.195 170.762C986.784 170.762 996.582 172.91 1004.59 177.207C1012.6 181.439 1018.82 187.266 1023.24 194.688C1027.67 202.109 1030.34 210.638 1031.25 220.273H1004.39C1003.87 214.284 1002.57 209.206 1000.49 205.039C998.47 200.872 995.41 197.715 991.309 195.566C987.272 193.353 981.901 192.246 975.195 192.246C969.987 192.246 965.397 193.223 961.426 195.176C957.52 197.129 954.264 200.059 951.66 203.965C949.056 207.806 947.103 212.624 945.801 218.418C944.499 224.147 943.848 230.788 943.848 238.34V249.375C943.848 256.602 944.434 263.079 945.605 268.809C946.777 274.538 948.6 279.388 951.074 283.359C953.548 287.331 956.738 290.358 960.645 292.441C964.551 294.525 969.206 295.566 974.609 295.566C981.185 295.566 986.523 294.525 990.625 292.441C994.792 290.358 997.949 287.298 1000.1 283.262C1002.31 279.225 1003.71 274.212 1004.3 268.223ZM1075.29 165V315H1049.41V165H1075.29ZM1071.19 258.359H1063.57C1063.57 251.003 1064.55 244.232 1066.5 238.047C1068.46 231.862 1071.22 226.491 1074.8 221.934C1078.39 217.311 1082.65 213.73 1087.6 211.191C1092.61 208.652 1098.14 207.383 1104.2 207.383C1109.41 207.383 1114.13 208.132 1118.36 209.629C1122.66 211.061 1126.33 213.372 1129.39 216.562C1132.45 219.753 1134.8 223.919 1136.43 229.062C1138.12 234.141 1138.96 240.326 1138.96 247.617V315H1112.99V247.422C1112.99 242.539 1112.27 238.698 1110.84 235.898C1109.41 233.034 1107.36 230.983 1104.69 229.746C1102.08 228.509 1098.86 227.891 1095.02 227.891C1090.85 227.891 1087.27 228.704 1084.28 230.332C1081.28 231.895 1078.81 234.076 1076.86 236.875C1074.97 239.674 1073.54 242.897 1072.56 246.543C1071.65 250.189 1071.19 254.128 1071.19 258.359ZM1209.18 316.953C1201.17 316.953 1193.98 315.651 1187.6 313.047C1181.22 310.443 1175.78 306.829 1171.29 302.207C1166.86 297.52 1163.44 292.083 1161.04 285.898C1158.69 279.648 1157.52 272.943 1157.52 265.781V261.875C1157.52 253.737 1158.69 246.348 1161.04 239.707C1163.38 233.001 1166.7 227.24 1171 222.422C1175.29 217.604 1180.44 213.893 1186.43 211.289C1192.42 208.685 1199.02 207.383 1206.25 207.383C1213.74 207.383 1220.35 208.652 1226.07 211.191C1231.8 213.665 1236.59 217.181 1240.43 221.738C1244.27 226.296 1247.17 231.764 1249.12 238.145C1251.07 244.46 1252.05 251.458 1252.05 259.141V269.98H1169.24V252.207H1226.66V250.254C1226.53 246.152 1225.75 242.409 1224.32 239.023C1222.88 235.573 1220.67 232.839 1217.68 230.82C1214.68 228.737 1210.81 227.695 1206.05 227.695C1202.21 227.695 1198.86 228.542 1196 230.234C1193.2 231.862 1190.85 234.206 1188.96 237.266C1187.14 240.26 1185.77 243.841 1184.86 248.008C1183.95 252.174 1183.5 256.797 1183.5 261.875V265.781C1183.5 270.208 1184.08 274.31 1185.25 278.086C1186.49 281.862 1188.28 285.15 1190.62 287.949C1193.03 290.684 1195.9 292.832 1199.22 294.395C1202.6 295.892 1206.45 296.641 1210.74 296.641C1216.15 296.641 1221.03 295.599 1225.39 293.516C1229.82 291.367 1233.66 288.21 1236.91 284.043L1249.9 297.52C1247.69 300.775 1244.69 303.9 1240.92 306.895C1237.21 309.889 1232.71 312.331 1227.44 314.219C1222.17 316.042 1216.08 316.953 1209.18 316.953ZM1312.7 296.641C1316.34 296.641 1319.6 295.924 1322.46 294.492C1325.33 293.06 1327.6 291.042 1329.3 288.438C1331.05 285.833 1332 282.806 1332.13 279.355H1356.45C1356.32 286.517 1354.3 292.93 1350.39 298.594C1346.48 304.258 1341.28 308.75 1334.77 312.07C1328.32 315.326 1321.09 316.953 1313.09 316.953C1304.95 316.953 1297.85 315.586 1291.8 312.852C1285.74 310.117 1280.7 306.309 1276.66 301.426C1272.69 296.543 1269.69 290.879 1267.68 284.434C1265.72 277.988 1264.75 271.087 1264.75 263.73V260.605C1264.75 253.249 1265.72 246.348 1267.68 239.902C1269.69 233.457 1272.69 227.793 1276.66 222.91C1280.7 218.027 1285.74 214.219 1291.8 211.484C1297.85 208.75 1304.92 207.383 1312.99 207.383C1321.52 207.383 1329 209.043 1335.45 212.363C1341.96 215.684 1347.04 220.371 1350.68 226.426C1354.39 232.48 1356.32 239.609 1356.45 247.812H1332.13C1332 244.036 1331.15 240.651 1329.59 237.656C1328.03 234.661 1325.81 232.253 1322.95 230.43C1320.08 228.607 1316.6 227.695 1312.5 227.695C1308.14 227.695 1304.49 228.607 1301.56 230.43C1298.7 232.253 1296.45 234.759 1294.82 237.949C1293.26 241.074 1292.15 244.59 1291.5 248.496C1290.92 252.337 1290.62 256.374 1290.62 260.605V263.73C1290.62 268.027 1290.92 272.129 1291.5 276.035C1292.15 279.941 1293.26 283.457 1294.82 286.582C1296.45 289.642 1298.7 292.083 1301.56 293.906C1304.49 295.729 1308.2 296.641 1312.7 296.641ZM1451.86 294.98L1489.75 325.059L1472.56 340L1435.25 310.117L1451.86 294.98ZM1490.43 240.293V247.617C1490.43 258.359 1489 268.027 1486.13 276.621C1483.27 285.15 1479.17 292.409 1473.83 298.398C1468.55 304.388 1462.27 308.978 1454.98 312.168C1447.69 315.358 1439.62 316.953 1430.76 316.953C1421.97 316.953 1413.9 315.358 1406.54 312.168C1399.25 308.978 1392.94 304.388 1387.6 298.398C1382.26 292.409 1378.12 285.15 1375.2 276.621C1372.27 268.027 1370.8 258.359 1370.8 247.617V240.293C1370.8 229.486 1372.23 219.818 1375.1 211.289C1378.03 202.76 1382.13 195.501 1387.4 189.512C1392.74 183.457 1399.06 178.835 1406.35 175.645C1413.7 172.454 1421.78 170.859 1430.57 170.859C1439.42 170.859 1447.49 172.454 1454.79 175.645C1462.14 178.835 1468.46 183.457 1473.73 189.512C1479.07 195.501 1483.17 202.76 1486.04 211.289C1488.96 219.818 1490.43 229.486 1490.43 240.293ZM1463.28 247.617V240.098C1463.28 232.35 1462.57 225.547 1461.13 219.688C1459.7 213.763 1457.55 208.783 1454.69 204.746C1451.89 200.71 1448.47 197.682 1444.43 195.664C1440.4 193.581 1435.77 192.539 1430.57 192.539C1425.42 192.539 1420.83 193.581 1416.8 195.664C1412.76 197.682 1409.34 200.71 1406.54 204.746C1403.74 208.783 1401.6 213.763 1400.1 219.688C1398.67 225.547 1397.95 232.35 1397.95 240.098V247.617C1397.95 255.299 1398.67 262.103 1400.1 268.027C1401.6 273.952 1403.74 278.965 1406.54 283.066C1409.41 287.103 1412.86 290.163 1416.89 292.246C1421 294.329 1425.62 295.371 1430.76 295.371C1435.97 295.371 1440.59 294.329 1444.63 292.246C1448.67 290.163 1452.05 287.103 1454.79 283.066C1457.58 278.965 1459.7 273.952 1461.13 268.027C1462.57 262.103 1463.28 255.299 1463.28 247.617Z" fill="#673AB7"/>
<defs>
<clipPath id="clip0_2_11">
<rect width="499" height="494" fill="white"/>
</clipPath>
</defs>
</svg>
